<?xml version="1.0" encoding="utf-8"?>
<!-- Generator: Adobe Illustrator 20.0.0, SVG Export Plug-In . SVG Version: 6.00 Build 0)  -->
<svg version="1.1" id="Layer_1" xmlns="http://www.w3.org/2000/svg" xmlns:xlink="http://www.w3.org/1999/xlink" x="0px" y="0px"
	 viewBox="0 0 1280 1024" style="enable-background:new 0 0 1280 1024;" xml:space="preserve">
<style type="text/css">
	.st0{fill:#D14405;}
	.st1{fill:#FFFFFF;}
	.st2{fill:#E6E6E6;}
	.st3{fill-rule:evenodd;clip-rule:evenodd;fill:#FFFFFF;}
</style>
<g>
	<path class="st0" d="M204.2,30h-11.9c-2,0-3.9,1.3-5,2.9c-0.3,0.3-0.6,0.8-0.9,1.3l-5.6-14.6L179.5,30h-8.4c-1.6,0-3.1,0.7-4.2,1.7
		c-1.2-1.1-2.8-1.7-4.5-1.7h-18.3c-1.9,0-3.6,0.9-4.8,2.1c-0.5-0.2-1.1-0.1-1.7-0.1h-3.8c-0.9,0-1.7-0.1-2.5,0c-1.2-1.2-2.8-2-4.5-2
		h-6.2c0.3,0,0.4-1.1,0.4-1.9v-7.4c0-3-2-5.3-4.9-5.8c-0.6-2.8-2.9-4.9-5.8-4.9H98.4c-2.8,0-5.3,2-6,4.6l-8.5,0v4.2
		c0,5.1,1.5,9.2,3.8,11.2h-7.9c-2,0-3.9,1.3-5,2.9c-0.3,0.3-0.6,0.8-0.9,1.3l-5.6-8.6L67.2,30h-8.4c-2.1,0-4.1,1.4-5.2,3.1
		c0-0.1-0.3,0-0.3-0.1c0.6-1,0.8-2.1,0.8-3.4v-3.3c0-3.7-2.6-6.4-6.3-6.4h-9.3c-1.7,0-3.4,0.2-4.4,1.2v-3.8c0-3.4-2.6-6.4-5.9-6.4
		H16.2c-3.3,0-6.2,3.1-6.2,6.4v24.5C10,56.7,17.6,65,31.3,65c0,0,0,0,0,0c1.4,0,2.6,0,3.4,0c0.4,0,0.8,0,1,0h16h0c0.7,0,1.4,0,2,0
		h2.4h2.3c0.1,0,0.2-0.2,0.2-0.2c0,0,9.5,0,9.6,0L62.6,72h9.5c6.3,0,13.5-0.8,18.6-6c2.4-2.4,4.1-5.3,5.3-9.3
		c3.5,5.3,9.5,8.3,17.6,8.3c0,0,0,0,0,0c1.4,0,2.6,0,3.4,0c0.4,0,0.8,0,1,0h10.5c0.8,0,1.5,0,2.4,0c1.1,0,2.1,0,2.9,0
		c0.4,0,0.8,0.1,1,0.1h8.1h13.7c0.8,0,1.5-0.1,2.3-0.1c0.9,0,1.7-0.1,2.4-0.1c0.4,0,0.8-0.1,1.1-0.1c1.7,0,3.2-0.6,4.4-1.7
		c1.1,1,2.6,1.7,4.2,1.7c0,0,9.5,0.1,9.6,0.1l-5.8,7.2h9.5c6.3,0,13.5-0.8,18.6-6c4.8-4.8,7-12.5,7-24.1v-5.3
		C210,33.1,207.4,30,204.2,30z"/>
	<g>
		<path class="st1" d="M14.4,41.9c0-7.8,0-24.5,0-24.5c0-1,0.8-1.8,1.8-1.8h11.9c1,0,1.8,0.8,1.8,1.8c0,0,0,16.6,0,24.5
			c0,16.4,6,18.5,6,18.5C32.5,60.4,14.4,63.8,14.4,41.9z"/>
		<g>
			<path class="st1" d="M117.3,41.9c0-7.8,0-5.3,0-5.3c0-1,0.8-1.8,1.8-1.8h7.7c1,0,1.8,0.8,1.8,1.8c0,0,0-2.6,0,5.3
				c0,16.4,6,18.5,6,18.5C131.2,60.4,117.3,63.8,117.3,41.9z"/>
		</g>
		<path class="st1" d="M133.8,36.4c5.5,0,3.8,0,3.8,0c0.7,0,1.3,0.6,1.3,1.3l0,8.4c0,0.7-0.6,1.3-1.3,1.3c0,0,1.8,0-3.8,0
			c-11.6,0-13.1,4.2-13.1,4.2C120.7,49.2,118.3,36.4,133.8,36.4z"/>
		<g>
			<path class="st1" d="M34.8,41.9c0-7.8,0-5.3,0-5.3c0-1,0.8-1.8,1.8-1.8h11.9c1,0,1.8,0.8,1.8,1.8c0,0,0-2.6,0,5.3
				c0,16.4,6,18.5,6,18.5C52.9,60.4,34.8,63.8,34.8,41.9z"/>
			<path class="st1" d="M48.1,32h-10c-1.2,0-2.2-1-2.2-2.2v-4c0-1.2,1-2.2,2.2-2.2h10c1.2,0,2.2,1,2.2,2.2v4
				C50.3,31,49.3,32,48.1,32z"/>
		</g>
		<path class="st1" d="M112,41.9c0-3.1,0-7.9,0-11.9c2,0,2.7,0,3.2,0c1,0,1.8-0.9,1.8-1.9v-7.4c0-1-0.8-1.7-1.8-1.7
			c-0.4,0-1.2,0-3.2,0c0-2,0-2.9,0-2.9c0-1-0.6-2.1-1.6-2.1H98.4c-1,0-2.4,1.1-2.4,2.1c0,0,0,1.1,0,2.7c-4,0-8,0-8,0
			c0,7.8,4.2,11.1,7.2,11.1c0.1,0,0.8,0,0.8,0c0,4.4,0,9,0,12c0,21.9,18.3,18.5,21.7,18.5C117.7,60.4,112,58.3,112,41.9z"/>
		<path class="st1" d="M162.4,35h-7.3h-6h-5.1c-1.4,0-2.1,0.8-2.1,2.2v4.7c0,20.9,16.2,18.5,20.7,18.5c1.4,0,2.3-1.1,2.3-2.5V37.2
			C165,35.8,163.8,35,162.4,35z"/>
		<g>
			<polygon class="st2" points="80.7,51.7 69,35.7 66.8,49.4 81.2,60.4 			"/>
			<path class="st1" d="M93.7,41.9c0-7.8,0-5.3,0-5.3c0-1-0.8-1.8-1.8-1.8H79.9c-1,0-1.8,0.8-1.8,1.8c0,0,0-2.6,0,5.3
				c0,21.9-6,25.7-6,25.7C85.4,67.6,93.7,63.8,93.7,41.9z"/>
			<path class="st1" d="M60,60.6H67c1.7,0,3-1.4,3-3V37.8c0-1.6-1.3-3-3-3H60c-1.7,0-3,1.4-3,3v19.8C57,59.2,58.3,60.6,60,60.6z"/>
		</g>
		<g>
			<polygon class="st2" points="193,51.7 181.3,35.7 179.1,49.4 193.5,60.4 			"/>
			<path class="st1" d="M206,41.9c0-7.8,0-5.3,0-5.3c0-1-0.8-1.8-1.8-1.8h-11.9c-1,0-1.8,0.8-1.8,1.8c0,0,0-2.6,0,5.3
				c0,21.9-6,25.7-6,25.7C197.7,67.6,206,63.8,206,41.9z"/>
			<path class="st1" d="M172.3,60.6h7.1c1.6,0,3-1.4,3-3V37.8c0-1.6-1.4-3-3-3h-7.1c-1.6,0-3,1.4-3,3v19.8
				C169.3,59.2,170.6,60.6,172.3,60.6z"/>
		</g>
	</g>
	<g>
		<path class="st1" d="M78.1,36.6C78.1,36.5,78.1,36.5,78.1,36.6C78.1,35.7,78.1,36.6,78.1,36.6z"/>
		<path class="st1" d="M190.4,36.6C190.4,36.5,190.4,36.5,190.4,36.6C190.4,35.7,190.4,36.6,190.4,36.6z"/>
	</g>
</g>
<path class="st3" d="M257.5,25c-9.7,0-17.5,7.8-17.5,17.5c0,7.7,5,14.3,12,16.6c0.9,0.2,1.2-0.4,1.2-0.8c0-0.4,0-1.5,0-3
	c-4.9,1.1-5.9-2.3-5.9-2.3c-0.8-2-1.9-2.6-1.9-2.6c-1.6-1.1,0.1-1.1,0.1-1.1c1.8,0.1,2.7,1.8,2.7,1.8c1.6,2.7,4.1,1.9,5.1,1.5
	c0.2-1.1,0.6-1.9,1.1-2.3c-3.9-0.4-8-1.9-8-8.6c0-1.9,0.7-3.5,1.8-4.7c-0.2-0.4-0.8-2.2,0.2-4.6c0,0,1.5-0.5,4.8,1.8
	c1.4-0.4,2.9-0.6,4.4-0.6c1.5,0,3,0.2,4.4,0.6c3.3-2.3,4.8-1.8,4.8-1.8c1,2.4,0.4,4.2,0.2,4.6c1.1,1.2,1.8,2.8,1.8,4.7
	c0,6.7-4.1,8.2-8,8.6c0.6,0.5,1.2,1.6,1.2,3.2c0,2.3,0,4.2,0,4.8c0,0.5,0.3,1,1.2,0.8c6.9-2.3,12-8.9,12-16.6
	C275,32.8,267.2,25,257.5,25z"/>
</svg>
